<svg xmlns="http://www.w3.org/2000/svg" width="480.34" height="758.464" viewBox="0 0 480.34 758.464">
  <g id="Group_1" data-name="Group 1">
    <path id="Path_14" data-name="Path 14" d="M519,170.11c7.41-6.08,13.61-11.88,16.65-20,4.72-12.64,10-25.28,11.17-38.8.6-7.31,3.18-12.31,8.69-16.74q9-7.3,9.15-19.44c.13-9.54,9.62-15.61,20.12-13.49,7.59,1.54,12.3,6.85,12.9,14.58.69,8.89-2.73,14.89-10.28,17.69-2.67,1-5.53,1.47-8.21,2.42-16.64,5.86-23,23.16-14,38.37,1.51,2.58,3.37,5,4.22,7.88,2.67,9.09-1.93,17.91-11.68,20.68-15.43,4.37-25.93,14.33-33.57,27.84A38.66,38.66,0,0,0,519,210.48v75.09c0,6.25.36,12.45,3.49,18.17a11.71,11.71,0,0,1,.6,8.78c-4.1,14.86-4.82,30-4.16,45.29.74,17.3,2.52,34.54,2.15,51.86,1.52.59,1.94-.69,2.57-1.33,10.56-10.63,20.93-21.46,32.19-31.38a3.554,3.554,0,0,0,.28-.27c11.63-11.38,11.4-21.83-1.42-31.88-14.27-11.19-19.7-25.52-17.68-43.3.69-6,1.26-12.15.54-18.32a33.47,33.47,0,0,0-7.68-18c-3.94-4.73-4.21-9.05-1.07-14.34,3.91-6.57,12.05-10.64,18.79-9.39s12.92,7.44,14.32,13.94a11,11,0,0,1-1.92,9.27c-8.59,11.27-8.53,24.18-7.45,37.33.42,5.18,1,10.37,1.17,15.56a14.52,14.52,0,0,0,3.66,9.61c3.82,4.33,8.76,7.36,13.07,11.11,1.24,1.08,2,.74,2.77-.48a9.33,9.33,0,0,0,1.3-5.62c-.91-19.41-.25-38.83-.37-58.24-.14-20.85.1-41.71-.14-62.56-.11-9.2,2.89-16.72,9.53-23,15.64-14.78,30.61-30.22,45.84-45.41,6.27-6.26,11-13.11,11.31-22.38a10.2,10.2,0,0,1,3.18-6.56c5.88-6.2,19.12-5.86,25.25.62s5.65,19.11-1,24.77a14.27,14.27,0,0,1-9.8,3.27c-5.24-.13-9.38,2.06-12.88,5.53q-25.3,25-50.44,50.21a17.82,17.82,0,0,0-5.66,13.32c.51,16.54.17,33.08.21,49.8,1.82-.13,2.49-1.55,3.42-2.47,10.63-10.57,21.11-21.29,31.87-31.72A12.62,12.62,0,0,0,628.92,217c-.19-7.1,2.59-12.95,9.21-16.34,5.59-2.86,14.88-1.26,19.38,3.15s6.09,13.25,3.63,19a10.34,10.34,0,0,1-7,6.32c-13.08,3.17-22.44,11.6-31.06,21.25-4.76,5.33-9.32,10.87-14.81,15.54-1,.89-2.47,1.86-1.85,3.54s2.25,1.62,3.64,1.81a30.536,30.536,0,0,0,4.28.2c23.6,0,47.19-.08,70.78.07a15.18,15.18,0,0,0,11.23-4.21c10-9.16,22.87-6.49,28.26,5.56,2.85,6.38,1.09,13.4-4.69,18.69s-12.39,6.17-18.62,2.53a42.869,42.869,0,0,1-4.75-3.41,18.22,18.22,0,0,0-11.57-4H598.17c-6.49,0-9.19,2.51-8.95,9,.5,13.94-.7,27.91.61,41.82,1.35,14.37,7.74,26.54,16.9,37.44,7.9,9.41,17.15,17.47,25.92,26a35.8,35.8,0,0,1,5.16,5.81c2,3,5.1,4.23,8.72,4.25a20,20,0,0,1,12.6,3.98c9,6.79,7.3,23.84-4.3,29.62-5.71,2.85-16.58-.78-20.56-6.74-2.36-3.53-4.47-7.18-2.95-11.9.84-2.65-.53-5.17-2.44-7.09-12.17-12.16-24.16-24.51-36.68-36.3-7.51-7.07-13.61-6.67-21.32.31-4.92,4.46-9.49,9.31-14.23,14-11.23,11.1-22.36,22.23-33.76,33.1a15.93,15.93,0,0,0-5.34,12.84c.63,14.85.38,29.71.28,44.56,0,4.81,1.33,6.3,6.14,6.45,5.47.16,10.94.22,16.41.34,3.26.07,6.16-1.15,6.16-4.56,0-9.34,1.37-18.75-1.28-28a22.639,22.639,0,0,0-6.58-10.85,5.67,5.67,0,0,1-2.08-5.44,28.26,28.26,0,0,1,7.54-15.58c3.2-3.48,8.19-3.13,12.55-2,5.54,1.45,9.84,5.17,14.11,8.82a2.74,2.74,0,0,1,.91,2.06c.41,6.19.18,12.27-3.52,17.63-.58.84-1.19,2-2,2.27-4.29,1.37-4.24,4.82-4.22,8.25,0,11.59.21,23.19.18,34.78,0,6.86-1.35,8.1-8.4,8-8.72-.13-17.45-.51-26.17-.68-6.63-.12-8.82,1.94-8.65,8.55.34,13,.28,26,0,39.08-.12,6.26,1.53,8,7.72,8.06q27.75.2,55.5.15c6,0,8.1-1.75,9.61-7.63,4.45-17.32,9.67-34.46,12.63-52.15a12.37,12.37,0,0,0-1-8c-2.19-4.05-1.3-7.9-.83-12.23,1-9.06,8.05-10.92,14.25-13.16,6.72-2.44,18.37,7.58,18.32,14.84,0,.92-.06,1.83,0,2.74.29,4.59-.69,8.08-4.91,11.23-8.29,6.19-12.6,15.28-15.41,25.12-3.64,12.75-4.68,26.06-8.5,38.77-.52,1.73-1,3.48-1.68,5.16-3.17,7.92-7.23,10.89-15.8,10.58-22.94-.82-45.87-.48-68.81-.35-3.51,0-7,.35-10.53.32-4.41,0-6.24-2.12-6.2-6.45q.25-25.81.42-51.62c.07-9.38-.33-18.77.71-28.12.76-6.95-1.26-13.73-1.26-20.58q-.11-152.91.07-305.82c0-26.7-.11-53.4.17-80.1a23.24,23.24,0,0,0-5.63-16.09c-7-7.91-4.51-16.63,2-22.28,7.27-6.28,16.11-6.06,23.08.63,5.6,5.38,8.52,13.49,1.66,21.1a20.13,20.13,0,0,0-5,12.89C518.45,112.08,519.29,140.6,519,170.11Z" transform="translate(-259.85 -44.39)" fill="#18487a"/>
    <path id="Path_15" data-name="Path 15" d="M335.18,386.1a41.12,41.12,0,0,1-18.59-78c30.89-14.72,43.21-56,23.83-85.7-4.35-6.67-8.82-13.19-11.76-20.59-11.3-28.42,5.49-60.2,36.79-64.62,21.79-3.07,41.8,8.09,50.17,28.08,8.45,20.19,2.12,42.88-15.12,56.38-6.92,5.42-14.94,8.94-21.91,14.15-26.13,19.54-30.73,58.45-11,84.35,19.09,25.06,4.92,58.66-23.91,65.13A35,35,0,0,1,335.18,386.1Z" transform="translate(-259.85 -44.39)" fill="#1faee4"/>
    <path id="Path_16" data-name="Path 16" d="M511.11,648.85h84.42c5.44,0,6.71,1.22,6.73,6.56a70.639,70.639,0,0,0,.62,9.73c1,7.2-1.39,10.94-8.49,12.48-7.82,1.7-12,6.15-13.43,14.08-2.87,15.49-11.28,22.11-27.13,22.35-28.26.43-56.53.5-84.79.05-16.92-.28-24.8-6.74-27.94-23.28-1.21-6.4-4.55-10.79-11-12.92-9.13-3-14.57-17.08-10.29-25.77,1.38-2.8,3.61-3.31,6.43-3.31Q468.7,648.91,511.11,648.85Z" transform="translate(-259.85 -44.39)" fill="#18487a"/>
    <path id="Path_17" data-name="Path 17" d="M415.39,443.26c.86,6.72-1.64,13.15-4.18,19.36-10.18,24.9,6.45,55,34.19,59.46a29.87,29.87,0,0,1,25.42,32,30.69,30.69,0,0,1-28.63,28.18,30.25,30.25,0,0,1-30.42-40.32c3.27-9.29,4.06-18.61,1.08-27.94-5.4-16.84-16.65-27.24-34.24-31.14-11.72-2.6-23.2-6.45-30.82-16.84-9.3-12.67-10.24-26.4-3.38-40.16,6.64-13.34,18.07-20,33.11-20.38C399.16,404.85,416.74,423.25,415.39,443.26Z" transform="translate(-259.85 -44.39)" fill="#83cdb8"/>
    <path id="Path_18" data-name="Path 18" d="M510.86,616.11H593c1.3,0,2.61-.06,3.91,0,6,.54,7.75,2.68,6.84,8.71a110.833,110.833,0,0,0-1.43,14c-.09,3.77-2,5.71-5.75,5.85H432.39a27.467,27.467,0,0,1-6.19-.54c-5.19-1.17-7.44-3.41-7.64-8.61-.2-4.81-.06-9.64,0-14.46a4.23,4.23,0,0,1,3.65-4.38,22.6,22.6,0,0,1,5.42-.52h83.26Z" transform="translate(-259.85 -44.39)" fill="#83cdb8"/>
    <path id="Path_19" data-name="Path 19" d="M463.27,588.69H600.29c5.42,0,7.11,1.84,6.48,7.13a27.106,27.106,0,0,0-.53,3.86c.23,8.08-3.46,9.92-10.67,9.94-25.8.07-51.61,0-77.41,0h-91a34.375,34.375,0,0,1-3.52-.05c-5.49-.59-6.89-1.87-7.71-7.34-.35-2.3-.45-4.65-.57-7-.29-5.36.69-6.48,6.11-6.5C435.38,588.66,449.33,588.7,463.27,588.69Z" transform="translate(-259.85 -44.39)" fill="#1faee4"/>
    <path id="Path_20" data-name="Path 20" d="M440.6,260.13c-7.87.58-16,5.06-21.19,14.44-4.33,7.86-11.13,11.77-19,10.93-12.35-1.32-19.24-15-13.22-26.29,5.52-10.35,17.67-13.33,27.31-6.7,13.83,9.51,31.1,5.21,39.16-9.75,5.25-9.73,16.6-13.62,25.15-8.62,6.64,3.87,9.81,9.85,9,17.28-.88,8-5.35,13.73-13.17,16.39-6,2.05-11.54.82-16.54-2.92C453.7,261.57,448.75,260,440.6,260.13Z" transform="translate(-259.85 -44.39)" fill="#83cdb8"/>
    <path id="Path_21" data-name="Path 21" d="M491.22,421.11c0,7.75-4.78,13.61-13.78,16.28-6.54,1.95-11.71,5.5-15.33,11.3-4.23,6.77-4.94,13.77-1.68,21.18,3.6,8.18,1.26,16.25-5.84,20.87-7.63,5-17,4.18-22.92-1.92-8.68-8.91-3.89-23.46,8.83-26.82,6-1.58,11-4.54,14.68-9.62,5.31-7.33,6.56-15.08,2.65-23.48-4.56-9.78,2.11-21.61,13-23.26C482.19,403.93,491.23,410.8,491.22,421.11Z" transform="translate(-259.85 -44.39)" fill="#1faee4"/>
    <path id="Path_22" data-name="Path 22" d="M390.18,103.13c0-11.9,10.23-18.92,21.08-14.4,10.35,4.3,23.1-2.42,26.75-14.11,2.17-6.92,7.56-11.84,13.33-12.16,9-.5,15.17,7.39,13.12,16.84-1.88,8.62-11.4,15.5-20.61,11-10.13-4.91-22.72,1.58-26.82,13.19-1.2,3.37-2.63,6.49-5.31,9-4.15,3.79-8.89,4.8-14.1,2.84C392.81,113.5,390.2,109,390.18,103.13Z" transform="translate(-259.85 -44.39)" fill="#83cdb8"/>
    <path id="Path_23" data-name="Path 23" d="M300.48,282.82c.11,7.16-3.42,12.92-8.76,14.65a12.833,12.833,0,0,1-14.62-5.3c-4.09-5.92-4-13.75.17-18.9,2.31-2.85,5.2-5,8.86-5.14,10.43-.49,18.42-13.53,16.1-24.46-.87-4.09-1.85-8.11-.48-12.26,2-5.94,7.24-9.93,12.75-9.62s11.08,5.17,12.41,10.84c2.35,10.07-1.94,17-12.21,19.07-11.86,2.44-16.73,15.23-15.48,23.41C299.63,277.8,300.66,280.39,300.48,282.82Z" transform="translate(-259.85 -44.39)" fill="#83cdb8"/>
    <path id="Path_24" data-name="Path 24" d="M443.42,193.69c0-4.81,2.41-8.68,7.17-10.05,10.18-2.92,13.34-14,9.57-22.36-2.81-6.25-.21-12.84,5.49-15a10.8,10.8,0,0,1,13.89,6.62c2.29,6.19-.48,12-6.82,14.4-9.51,3.52-13.39,12.28-9.41,21.67,2,4.77,1.78,9.15-1.59,13.11a10.28,10.28,0,0,1-11.11,2.62A11.232,11.232,0,0,1,443.42,193.69Z" transform="translate(-259.85 -44.39)" fill="#1faee4"/>
    <path id="Path_25" data-name="Path 25" d="M420.75,312.77a10,10,0,0,1,8.45-10.14c4.3-.66,9.1,2.87,10.36,7.69.46,1.76.61,3.61,1.2,5.31,2.59,7.52,9.22,10.9,17.49,9.05a9.6,9.6,0,0,1,11.36,5.92c1.92,4.75.27,10.75-3.65,13.21-6.14,3.86-13.29.13-14.69-7.66-1.56-8.7-7.36-13.95-14.94-13.47a27.211,27.211,0,0,0-3,.6C426.08,324.67,420.73,320.19,420.75,312.77Z" transform="translate(-259.85 -44.39)" fill="#1faee4"/>
    <path id="Path_26" data-name="Path 26" d="M426.38,370.65a11,11,0,0,0-1-4.56c-1.73-4.44-.13-8.46,3.85-10,3.41-1.35,7.26.54,8.82,4.32,1.65,4,0,7.6-4.26,9.43-6.77,2.92-8.39,7.12-5.88,15.28,1.13,3.67-.11,7-3.19,8.69a6.69,6.69,0,0,1-8.71-2,7.63,7.63,0,0,1,.15-9.4,8.9,8.9,0,0,1,4-2.36C424.42,378.35,426.29,375.09,426.38,370.65Z" transform="translate(-259.85 -44.39)" fill="#83cdb8"/>
  </g>
</svg>
